<svg width="24" height="24" viewBox="0 0 24 24" fill="none" xmlns="http://www.w3.org/2000/svg">
    <path d="M12.0003 -6.10352e-05C5.38831 -6.10352e-05 0.000305176 5.38794 0.000305176 11.9999C0.000305176 18.6119 5.38831 23.9999 12.0003 23.9999C18.6123 23.9999 24.0003 18.6119 24.0003 11.9999C24.0003 5.38794 18.6123 -6.10352e-05 12.0003 -6.10352e-05ZM16.0323 14.7599C16.3803 15.1079 16.3803 15.6839 16.0323 16.0319C15.8523 16.2119 15.6243 16.2959 15.3963 16.2959C15.1683 16.2959 14.9403 16.2119 14.7603 16.0319L12.0003 13.2719L9.2403 16.0319C9.06031 16.2119 8.83231 16.2959 8.60431 16.2959C8.37631 16.2959 8.14831 16.2119 7.96831 16.0319C7.62031 15.6839 7.62031 15.1079 7.96831 14.7599L10.7283 11.9999L7.96831 9.23994C7.62031 8.89194 7.62031 8.31594 7.96831 7.96794C8.31631 7.61994 8.89231 7.61994 9.2403 7.96794L12.0003 10.7279L14.7603 7.96794C15.1083 7.61994 15.6843 7.61994 16.0323 7.96794C16.3803 8.31594 16.3803 8.89194 16.0323 9.23994L13.2723 11.9999L16.0323 14.7599Z" fill="#0F1935"/>
</svg>
