<svg width="24" height="24" viewBox="0 0 24 24" fill="none" xmlns="http://www.w3.org/2000/svg">
    <path d="M9.5 16C5.91707 16 3 13.0829 3 9.5C3 5.91707 5.91707 3 9.5 3C13.0829 3 16 5.91707 16 9.5C16 13.0829 13.0829 16 9.5 16ZM9.5 4.5C6.5 4.5 4.5 6.5 4.5 9.5C4.5 12.5 6.5 14.5 9.5 14.5C12.5 14.5 14.5 12.5 14.5 9.5C14.5 6.5 12.5 4.5 9.5 4.5Z" fill="#0F1935"/>
    <path d="M18.9992 20.0001L14.9998 16.0001C14.419 15.4197 13.999 15 14.4354 14.4352C14.999 13.9998 15.4183 14.4196 15.9992 15L19.9992 19.0001C20.58 19.5805 20.9991 19.9998 20.5641 20.5596C19.9991 20.9998 19.5792 20.5797 18.9992 20.0001Z" fill="#0F1935"/>
</svg>
